# xmcd
#
# Track frame offsets:
#	150
#	20550
#	37200
#	53925
#	69975
#	86175
#	107400
#	133800
#	151875
#	172725
#	190725
#
# Disc length: 2788 seconds
#
# Revision: 0
# Processed by: cddbd v1.5.1PL0 Copyright (c) Steve Scherf et al.
# Submitted via: audiograbber 1.83.01
#
DISCID=8e0ae20b
DTITLE=Johnny Adams - Johnny Adams Sings Doc Pomus: The Real Me
DYEAR=1991
DGENRE=Blues
TTITLE0=Imitation of Love
TTITLE1=Still in Love
TTITLE2=There is Always One More Time
TTITLE3=My Baby's Quit Me
TTITLE4=She's Everything to Me
TTITLE5=I Underestimated You
TTITLE6=Blinded By Love
TTITLE7=Prisoner of Life
TTITLE8=The Night is a Hunter
TTITLE9=No One
TTITLE10=The Real Me
EXTD=
EXTT0=
EXTT1=
EXTT2=
EXTT3=
EXTT4=
EXTT5=
EXTT6=
EXTT7=
EXTT8=
EXTT9=
EXTT10=
PLAYORDER=
